<svg xmlns="http://www.w3.org/2000/svg" viewBox="0 0 36 36" shape-rendering="crispEdges" xmlns:c2pa="http://c2pa.org/manifest"><metadata><c2pa:manifest>AAAWgmp1bWIAAAAeanVtZGMycGEAEQAQgAAAqgA4m3EDYzJwYQAAABZcanVtYgAAAEdqdW1kYzJtYQARABCAAACqADibcQN1cm46YzJwYTowNmU2NjNlYi0zZjVkLTQ0NmUtOTllOS0zNzM1MjZkZDY5MGIAAAADl2p1bWIAAAApanVtZGMyYXMAEQAQgAAAqgA4m3EDYzJwYS5hc3NlcnRpb25zAAAAALxqdW1iAAAARGp1bWRjYm9yABEAEIAAAKoAOJtxE2MycGEuaW5ncmVkaWVudC52MwAAAAAYYzJzaLvQRsAXYO/hxLNQTaIWsEQAAABwY2JvcqNpZGM6Zm9ybWF0bWltYWdlL3N2Zyt4bWxqaW5zdGFuY2VJRHgseG1wOmlpZDpiMjU5NThhYy1jZDM1LTQwYTUtYWJkOS04YzQwMzcwYjZiYTlscmVsYXRpb25zaGlwaHBhcmVudE9mAAAB4mp1bWIAAABBanVtZGNib3IAEQAQgAAAqgA4m3ETYzJwYS5hY3Rpb25zLnYyAAAAABhjMnNoSWdKCT/UOoPkNNi44KhUHwAAAZljYm9yomdhY3Rpb25zgqJmYWN0aW9ua2MycGEub3BlbmVkanBhcmFtZXRlcnOha2luZ3JlZGllbnRzgaJjdXJseC1zZWxmI2p1bWJmPWMycGEuYXNzZXJ0aW9ucy9jMnBhLmluZ3JlZGllbnQudjNkaGFzaFggp0jybpZ7SnkXcx/EMBX7IlO9pJWH5jh77chQ0RMgM1WkZmFjdGlvbngdY29tLmFudGhyb3BpYy5jbGF1ZGUucHJvdmlkZWRqcGFyYW1ldGVyc6F4H2NvbS5hbnRocm9waWMub3JpZ2luLWNvbmZpZGVuY2VndW5rbm93bmtkZXNjcmlwdGlvbnhmQ2xhdWRlIHByb3ZpZGVkIHRoaXMgZmlsZSBhdCB0aGUgcmVxdWVzdCBvZiBhIHVzZXIgYW5kIG1heSBoYXZlIGNyZWF0ZWQgb3IgbW9kaWZpZWQgdGhlIGZpbGUgY29udGVudHMubXNvZnR3YXJlQWdlbnShZG5hbWVmQ2xhdWRlcmFsbEFjdGlvbnNJbmNsdWRlZPUAAADIanVtYgAAAEBqdW1kY2JvcgARABCAAACqADibcRNjMnBhLmhhc2guZGF0YQAAAAAYYzJzaGD8OoSz6yjpSjHr5t6Lmd4AAACAY2JvcqVjYWxnZnNoYTI1NmNwYWRNAAAAAAAAAAAAAAAAAGRoYXNoWCDgTr844EnWnolboup1BfKcdwVtWnoBH1pOAvuxDUxQumRuYW1lbmp1bWJmIG1hbmlmZXN0amV4Y2x1c2lvbnOBomVzdGFydBiYZmxlbmd0aBkeBAAAAj5qdW1iAAAAJ2p1bWRjMmNsABEAEIAAAKoAOJtxA2MycGEuY2xhaW0udjIAAAACD2Nib3KlY2FsZ2ZzaGEyNTZpc2lnbmF0dXJleE1zZWxmI2p1bWJmPS9jMnBhL3VybjpjMnBhOjA2ZTY2M2ViLTNmNWQtNDQ2ZS05OWU5LTM3MzUyNmRkNjkwYi9jMnBhLnNpZ25hdHVyZWppbnN0YW5jZUlEeCx4bXA6aWlkOjQ5NGIzN2I2LTgyMTUtNGZmOC05MjJlLWI2MzJiMDM0Yjk5N3JjcmVhdGVkX2Fzc2VydGlvbnODomN1cmx4LXNlbGYjanVtYmY9YzJwYS5hc3NlcnRpb25zL2MycGEuaW5ncmVkaWVudC52M2RoYXNoWCCnSPJulntKeRdzH8QwFfsiU72klYfmOHvtyFDREyAzVaJjdXJseCpzZWxmI2p1bWJmPWMycGEuYXNzZXJ0aW9ucy9jMnBhLmFjdGlvbnMudjJkaGFzaFggkYKgTstwYxTSPRphjIX9MNi16nhpDLgzv+zNJbvouU2iY3VybHgpc2VsZiNqdW1iZj1jMnBhLmFzc2VydGlvbnMvYzJwYS5oYXNoLmRhdGFkaGFzaFgguPiAOPh89Drn1OLXbmCrp/FAh29uJ3328ODtxoMtXUx0Y2xhaW1fZ2VuZXJhdG9yX2luZm+jZG5hbWVvQW50aHJvcGljIEZpbGVzZ3ZlcnNpb25lMS4wLjBrc3BlY1ZlcnNpb25lMi40LjAAABA4anVtYgAAAChqdW1kYzJjcwARABCAAACqADibcQNjMnBhLnNpZ25hdHVyZQAAABAIY2JvctKEWQISogEmGCFZAgowggIGMIIBjaADAgECAhRA5aAK7sI50L64g/oGQgU9Z1UTADAKBggqhkjOPQQDAzBJMRcwFQYDVQQKEw5BbnRocm9waWMsIFBCQzEuMCwGA1UEAxMlQW50aHJvcGljIENvbnRlbnQgQ3JlZGVudGlhbHMgUm9vdCBDQTAeFw0yNjA4MDcxODQzNTZaFw0yODA4MDYxOTQzNTZaMEQxFzAVBgNVBAoTDkFudGhyb3BpYywgUEJDMSkwJwYDVQQDEyBBbnRocm9waWMgQ2xhdWRlIENvbnRlbnQgU2lnbmluZzBZMBMGByqGSM49AgEGCCqGSM49AwEHA0IABJh6CmvLUBgFFNU0vUKlOVtE6djd17L5SuwX0LemFisBM3dkd/3cyjxFA3Qo5S46fX0/ihY0VZ7mfb9KF703t5OjWDBWMA4GA1UdDwEB/wQEAwIHgDAVBgNVHSUEDjAMBgorBgEEAYPoXgIBMAwGA1UdEwEB/wQCMAAwHwYDVR0jBBgwFoAUzlHiBIFOZFsj+OPEz5o+nMHXXMIwCgYIKoZIzj0EAwMDZwAwZAIwMXMdFJ4BetLLVY7ORuE9noqbbAZOZn/aArXyTwFAZfKrPzxF2vPoJNf1+UCdg1XGAjBwX1zd9WGqYkqmL5SFqw1QySjr1zJfpJM9+1rdDwSPLMOPOjKuiXjoU/pUUeG9RwmhY3BhZFkNngAAAAAAAAAAAAAAAAAAAAAAAAAAAAAAAAAAAAAAAAAAAAAAAAAAAAAAAAAAAAAAAAAAAAAAAAAAAAAAAAAAAAAAAAAAAAAAAAAAAAAAAAAAAAAAAAAAAAAAAAAAAAAAAAAAAAAAAAAAAAAAAAAAAAAAAAAAAAAAAAAAAAAAAAAAAAAAAAAAAAAAAAAAAAAAAAAAAAAAAAAAAAAAAAAAAAAAAAAAAAAAAAAAAAAAAAAAAAAAAAAAAAAAAAAAAAAAAAAAAAAAAAAAAAAAAAAAAAAAAAAAAAAAAAAAAAAAAAAAAAAAAAAAAAAAAAAAAAAAAAAAAAAAAAAAAAAAAAAAAAAAAAAAAAAAAAAAAAAAAAAAAAAAAAAAAAAAAAAAAAAAAAAAAAAAAAAAAAAAAAAAAAAAAAAAAAAAAAAAAAAAAAAAAAAAAAAAAAAAAAAAAAAAAAAAAAAAAAAAAAAAAAAAAAAAAAAAAAAAAAAAAAAAAAAAAAAAAAAAAAAAAAAAAAAAAAAAAAAAAAAAAAAAAAAAAAAAAAAAAAAAAAAAAAAAAAAAAAAAAAAAAAAAAAAAAAAAAAAAAAAAAAAAAAAAAAAAAAAAAAAAAAAAAAAAAAAAAAAAAAAAAAAAAAAAAAAAAAAAAAAAAAAAAAAAAAAAAAAAAAAAAAAAAAAAAAAAAAAAAAAAAAAAAAAAAAAAAAAAAAAAAAAAAAAAAAAAAAAAAAAAAAAAAAAAAAAAAAAAAAAAAAAAAAAAAAAAAAAAAAAAAAAAAAAAAAAAAAAAAAAAAAAAAAAAAAAAAAAAAAAAAAAAAAAAAAAAAAAAAAAAAAAAAAAAAAAAAAAAAAAAAAAAAAAAAAAAAAAAAAAAAAAAAAAAAAAAAAAAAAAAAAAAAAAAAAAAAAAAAAAAAAAAAAAAAAAAAAAAAAAAAAAAAAAAAAAAAAAAAAAAAAAAAAAAAAAAAAAAAAAAAAAAAAAAAAAAAAAAAAAAAAAAAAAAAAAAAAAAAAAAAAAAAAAAAAAAAAAAAAAAAAAAAAAAAAAAAAAAAAAAAAAAAAAAAAAAAAAAAAAAAAAAAAAAAAAAAAAAAAAAAAAAAAAAAAAAAAAAAAAAAAAAAAAAAAAAAAAAAAAAAAAAAAAAAAAAAAAAAAAAAAAAAAAAAAAAAAAAAAAAAAAAAAAAAAAAAAAAAAAAAAAAAAAAAAAAAAAAAAAAAAAAAAAAAAAAAAAAAAAAAAAAAAAAAAAAAAAAAAAAAAAAAAAAAAAAAAAAAAAAAAAAAAAAAAAAAAAAAAAAAAAAAAAAAAAAAAAAAAAAAAAAAAAAAAAAAAAAAAAAAAAAAAAAAAAAAAAAAAAAAAAAAAAAAAAAAAAAAAAAAAAAAAAAAAAAAAAAAAAAAAAAAAAAAAAAAAAAAAAAAAAAAAAAAAAAAAAAAAAAAAAAAAAAAAAAAAAAAAAAAAAAAAAAAAAAAAAAAAAAAAAAAAAAAAAAAAAAAAAAAAAAAAAAAAAAAAAAAAAAAAAAAAAAAAAAAAAAAAAAAAAAAAAAAAAAAAAAAAAAAAAAAAAAAAAAAAAAAAAAAAAAAAAAAAAAAAAAAAAAAAAAAAAAAAAAAAAAAAAAAAAAAAAAAAAAAAAAAAAAAAAAAAAAAAAAAAAAAAAAAAAAAAAAAAAAAAAAAAAAAAAAAAAAAAAAAAAAAAAAAAAAAAAAAAAAAAAAAAAAAAAAAAAAAAAAAAAAAAAAAAAAAAAAAAAAAAAAAAAAAAAAAAAAAAAAAAAAAAAAAAAAAAAAAAAAAAAAAAAAAAAAAAAAAAAAAAAAAAAAAAAAAAAAAAAAAAAAAAAAAAAAAAAAAAAAAAAAAAAAAAAAAAAAAAAAAAAAAAAAAAAAAAAAAAAAAAAAAAAAAAAAAAAAAAAAAAAAAAAAAAAAAAAAAAAAAAAAAAAAAAAAAAAAAAAAAAAAAAAAAAAAAAAAAAAAAAAAAAAAAAAAAAAAAAAAAAAAAAAAAAAAAAAAAAAAAAAAAAAAAAAAAAAAAAAAAAAAAAAAAAAAAAAAAAAAAAAAAAAAAAAAAAAAAAAAAAAAAAAAAAAAAAAAAAAAAAAAAAAAAAAAAAAAAAAAAAAAAAAAAAAAAAAAAAAAAAAAAAAAAAAAAAAAAAAAAAAAAAAAAAAAAAAAAAAAAAAAAAAAAAAAAAAAAAAAAAAAAAAAAAAAAAAAAAAAAAAAAAAAAAAAAAAAAAAAAAAAAAAAAAAAAAAAAAAAAAAAAAAAAAAAAAAAAAAAAAAAAAAAAAAAAAAAAAAAAAAAAAAAAAAAAAAAAAAAAAAAAAAAAAAAAAAAAAAAAAAAAAAAAAAAAAAAAAAAAAAAAAAAAAAAAAAAAAAAAAAAAAAAAAAAAAAAAAAAAAAAAAAAAAAAAAAAAAAAAAAAAAAAAAAAAAAAAAAAAAAAAAAAAAAAAAAAAAAAAAAAAAAAAAAAAAAAAAAAAAAAAAAAAAAAAAAAAAAAAAAAAAAAAAAAAAAAAAAAAAAAAAAAAAAAAAAAAAAAAAAAAAAAAAAAAAAAAAAAAAAAAAAAAAAAAAAAAAAAAAAAAAAAAAAAAAAAAAAAAAAAAAAAAAAAAAAAAAAAAAAAAAAAAAAAAAAAAAAAAAAAAAAAAAAAAAAAAAAAAAAAAAAAAAAAAAAAAAAAAAAAAAAAAAAAAAAAAAAAAAAAAAAAAAAAAAAAAAAAAAAAAAAAAAAAAAAAAAAAAAAAAAAAAAAAAAAAAAAAAAAAAAAAAAAAAAAAAAAAAAAAAAAAAAAAAAAAAAAAAAAAAAAAAAAAAAAAAAAAAAAAAAAAAAAAAAAAAAAAAAAAAAAAAAAAAAAAAAAAAAAAAAAAAAAAAAAAAAAAAAAAAAAAAAAAAAAAAAAAAAAAAAAAAAAAAAAAAAAAAAAAAAAAAAAAAAAAAAAAAAAAAAAAAAAAAAAAAAAAAAAAAAAAAAAAAAAAAAAAAAAAAAAAAAAAAAAAAAAAAAAAAAAAAAAAAAAAAAAAAAAAAAAAAAAAAAAAAAAAAAAAAAAAAAAAAAAAAAAAAAAAAAAAAAAAAAAAAAAAAAAAAAAAAAAAAAAAAAAAAAAAAAAAAAAAAAAAAAAAAAAAAAAAAAAAAAAAAAAAAAAAAAAAAAAAAAAAAAAAAAAAAAAAAAAAAAAAAAAAAAAAAAAAAAAAAAAAAAAAAAAAAAAAAAAAAAAAAAAAAAAAAAAAAAAAAAAAAAAAAAAAAAAAAAAAAAAAAAAAAAAAAAAAAAAAAAAAAAAAAAAAAAAAAAAAAAAAAAAAAAAAAAAAAAAAAAAAAAAAAAAAAAAAAAAAAAAAAAAAAAAAAAAAAAAAAAAAAAAAAAAAAAAAAAAAAAAAAAAAAAAAAAAAAAAAAAAAAAAAAAAAAAAAAAAAAAAAAAAAAAAAAAAAAAAAAAAAAAAAAAAAAAAAAAAAAAAAAAAAAAAAAAAAAAAAAAAAAAAAAAAAAAAAAAAAAAAAAAAAAAAAAAAAAAAAAAAAAAAAAAAAAAAAAAAAAAAAAAAAAAAAAAAAAAAAAAAAAAAAAAAAAAAAAAAAAAAAAAAAAAAAAAAAAAAAAAAAAAAAAAAAAAAAAAAAAAAAAAAAAAAAAAAAAAAAAAAAAAAAAAAAAAAAAAAAAAAAAAAAAAAAAAAAAAAAAAAAAAAAAAAAAAAAAAAAAAAAAAAAAAAAAAAAAAAAAAAAAAAAAAAAAAAAAAAAAAAAAAAAAAAAAAAAAAAAAAAAAAAAAAAAAAAAAAAAAAAAAAAAAAAAAAAAAAAAAAAAAAAAAAAAAAAAAAAAAAAAAAAAAAAAAAAAAAAAAAAAAAAAAAAAAAAAAAAAAAAAAAAAAAAAAAAAAAAAAAAAAAAAAAAAAAAAAAAAAAAAAAAAAAAAAAAAAAAAAAAAAAAAAAAAAAAAAAAAAAAAAAAAAAAAAAAAAAAAAAAAAAAAAAAAAAAAAAAAAAAAAAAAAAAAAAAAAAAAAAAAAAAAAAAAAAAAAAAAAAAAAAAAAAAAAAAAAAAAAAAAAAAAAAAAAAAAAAAAAAAAAAAAAAAAAAAAAAAAAAAAAAAAAAAAAAAAAAAAAAAAAAAAAAAAAAAAAAAAAAAAAAAAAAAAAAAAAAAAAAAAAAAAAAAAAAAAAAAAAAAAAAAAAAAAAAAAAAAAAAAAAAAAAAAAAAAAAAAAAAAAAAAAAAAAAAAAAAAAAAAAAAAAAAAAAAAAAAAAAAAAAAAAAAAAAAAAAAAAAAAAAAAAAAAAAAAAAAAAAAAAAAAAAAAAAAAAAAAAAAAAAAAAAAAAAAAAAAAAAAAAAAAAAAAAAAAAAAAAAAAAAAAAAAAAAAAAAAAAAAAAAAAAAAAAAAAAAAAAAAAAAAAAAAAAAAAAAAAAAAAAAAAAAAAAAAAAAAAAAAAAAAAAAAAAAAAAAAAAAAAAAAAAAAAAAAAAAAAAAAAAAAAAAAAAAAAAAAAAAAAAAAAAAAAAAAAAAAAAAAAAAAAAAAAAAAAAAAAAAAAAAAAAAAAAAAAAAAAAAAAAAAAAAAAAAAAAAAAAAAAAAAAAAAAAAAAAAAAAAAAAAAAAAAAAAAAAAAAAAAAAAAAAAAAAAAAAAAAAAAAAAAAAAAAAAAAAAAAAAAAAAAAAAAAAAAAAAAAAAAAAAAAAAAAAAAAAAAAAAPZYQDwWL6ACqRvjvx03VMRV3ZTVHuhWVlAMPrECkZL0+zquWfcrKRJph5gLxkO9bJQwZFLzyBEAAECDbrS+tsk1XEA=</c2pa:manifest></metadata>
<rect x="26" y="2" width="1" height="1" fill="#14204D"/>
<rect x="27" y="2" width="1" height="1" fill="#F1F4FF"/>
<rect x="28" y="2" width="1" height="1" fill="#14204D"/>
<rect x="25" y="3" width="2" height="1" fill="#14204D"/>
<rect x="27" y="3" width="2" height="1" fill="#F1F4FF"/>
<rect x="29" y="3" width="1" height="1" fill="#14204D"/>
<rect x="24" y="4" width="1" height="1" fill="#14204D"/>
<rect x="25" y="4" width="1" height="1" fill="#FFE98A"/>
<rect x="26" y="4" width="1" height="1" fill="#14204D"/>
<rect x="27" y="4" width="1" height="1" fill="#F1F4FF"/>
<rect x="28" y="4" width="1" height="1" fill="#B9C2EE"/>
<rect x="29" y="4" width="2" height="1" fill="#14204D"/>
<rect x="23" y="5" width="1" height="1" fill="#14204D"/>
<rect x="24" y="5" width="1" height="1" fill="#FFE98A"/>
<rect x="25" y="5" width="1" height="1" fill="#FFD23F"/>
<rect x="26" y="5" width="1" height="1" fill="#14204D"/>
<rect x="27" y="5" width="2" height="1" fill="#B9C2EE"/>
<rect x="29" y="5" width="1" height="1" fill="#14204D"/>
<rect x="2" y="6" width="4" height="1" fill="#14204D"/>
<rect x="22" y="6" width="1" height="1" fill="#14204D"/>
<rect x="23" y="6" width="1" height="1" fill="#FFE98A"/>
<rect x="24" y="6" width="2" height="1" fill="#FFD23F"/>
<rect x="26" y="6" width="1" height="1" fill="#14204D"/>
<rect x="27" y="6" width="1" height="1" fill="#B9C2EE"/>
<rect x="28" y="6" width="1" height="1" fill="#14204D"/>
<rect x="2" y="7" width="4" height="1" fill="#14204D"/>
<rect x="21" y="7" width="1" height="1" fill="#14204D"/>
<rect x="22" y="7" width="1" height="1" fill="#FFE98A"/>
<rect x="23" y="7" width="2" height="1" fill="#FFD23F"/>
<rect x="25" y="7" width="1" height="1" fill="#E0A800"/>
<rect x="26" y="7" width="2" height="1" fill="#14204D"/>
<rect x="5" y="8" width="1" height="1" fill="#14204D"/>
<rect x="20" y="8" width="1" height="1" fill="#14204D"/>
<rect x="21" y="8" width="1" height="1" fill="#FFE98A"/>
<rect x="22" y="8" width="2" height="1" fill="#FFD23F"/>
<rect x="24" y="8" width="2" height="1" fill="#E0A800"/>
<rect x="26" y="8" width="1" height="1" fill="#14204D"/>
<rect x="6" y="9" width="1" height="1" fill="#14204D"/>
<rect x="19" y="9" width="1" height="1" fill="#14204D"/>
<rect x="20" y="9" width="1" height="1" fill="#FFE98A"/>
<rect x="21" y="9" width="2" height="1" fill="#FFD23F"/>
<rect x="23" y="9" width="2" height="1" fill="#E0A800"/>
<rect x="25" y="9" width="1" height="1" fill="#14204D"/>
<rect x="6" y="10" width="1" height="1" fill="#14204D"/>
<rect x="18" y="10" width="1" height="1" fill="#14204D"/>
<rect x="19" y="10" width="1" height="1" fill="#FFE98A"/>
<rect x="20" y="10" width="2" height="1" fill="#FFD23F"/>
<rect x="22" y="10" width="2" height="1" fill="#E0A800"/>
<rect x="24" y="10" width="1" height="1" fill="#14204D"/>
<rect x="7" y="11" width="1" height="1" fill="#14204D"/>
<rect x="17" y="11" width="1" height="1" fill="#14204D"/>
<rect x="18" y="11" width="1" height="1" fill="#FFE98A"/>
<rect x="19" y="11" width="2" height="1" fill="#FFD23F"/>
<rect x="21" y="11" width="2" height="1" fill="#E0A800"/>
<rect x="23" y="11" width="1" height="1" fill="#14204D"/>
<rect x="7" y="12" width="25" height="1" fill="#14204D"/>
<rect x="8" y="13" width="1" height="1" fill="#14204D"/>
<rect x="9" y="13" width="21" height="1" fill="#F1F4FF"/>
<rect x="30" y="13" width="1" height="1" fill="#14204D"/>
<rect x="8" y="14" width="1" height="1" fill="#14204D"/>
<rect x="9" y="14" width="6" height="1" fill="#F1F4FF"/>
<rect x="15" y="14" width="1" height="1" fill="#1E8E5A"/>
<rect x="16" y="14" width="14" height="1" fill="#F1F4FF"/>
<rect x="30" y="14" width="1" height="1" fill="#14204D"/>
<rect x="9" y="15" width="1" height="1" fill="#14204D"/>
<rect x="10" y="15" width="2" height="1" fill="#F1F4FF"/>
<rect x="12" y="15" width="1" height="1" fill="#1E8E5A"/>
<rect x="13" y="15" width="1" height="1" fill="#F1F4FF"/>
<rect x="14" y="15" width="1" height="1" fill="#1E8E5A"/>
<rect x="15" y="15" width="2" height="1" fill="#F1F4FF"/>
<rect x="17" y="15" width="9" height="1" fill="#1B34C9"/>
<rect x="26" y="15" width="3" height="1" fill="#F1F4FF"/>
<rect x="29" y="15" width="1" height="1" fill="#14204D"/>
<rect x="9" y="16" width="1" height="1" fill="#14204D"/>
<rect x="10" y="16" width="3" height="1" fill="#F1F4FF"/>
<rect x="13" y="16" width="1" height="1" fill="#1E8E5A"/>
<rect x="14" y="16" width="15" height="1" fill="#F1F4FF"/>
<rect x="29" y="16" width="1" height="1" fill="#14204D"/>
<rect x="9" y="17" width="1" height="1" fill="#14204D"/>
<rect x="10" y="17" width="5" height="1" fill="#F1F4FF"/>
<rect x="15" y="17" width="1" height="1" fill="#1E8E5A"/>
<rect x="16" y="17" width="13" height="1" fill="#F1F4FF"/>
<rect x="29" y="17" width="1" height="1" fill="#14204D"/>
<rect x="10" y="18" width="1" height="1" fill="#14204D"/>
<rect x="11" y="18" width="1" height="1" fill="#F1F4FF"/>
<rect x="12" y="18" width="1" height="1" fill="#1E8E5A"/>
<rect x="13" y="18" width="1" height="1" fill="#F1F4FF"/>
<rect x="14" y="18" width="1" height="1" fill="#1E8E5A"/>
<rect x="15" y="18" width="2" height="1" fill="#F1F4FF"/>
<rect x="17" y="18" width="8" height="1" fill="#1B34C9"/>
<rect x="25" y="18" width="3" height="1" fill="#F1F4FF"/>
<rect x="28" y="18" width="1" height="1" fill="#14204D"/>
<rect x="10" y="19" width="1" height="1" fill="#14204D"/>
<rect x="11" y="19" width="2" height="1" fill="#F1F4FF"/>
<rect x="13" y="19" width="1" height="1" fill="#1E8E5A"/>
<rect x="14" y="19" width="14" height="1" fill="#F1F4FF"/>
<rect x="28" y="19" width="1" height="1" fill="#14204D"/>
<rect x="10" y="20" width="1" height="1" fill="#14204D"/>
<rect x="11" y="20" width="1" height="1" fill="#F1F4FF"/>
<rect x="12" y="20" width="3" height="1" fill="#1B34C9"/>
<rect x="15" y="20" width="13" height="1" fill="#F1F4FF"/>
<rect x="28" y="20" width="1" height="1" fill="#14204D"/>
<rect x="10" y="21" width="1" height="1" fill="#14204D"/>
<rect x="11" y="21" width="1" height="1" fill="#F1F4FF"/>
<rect x="12" y="21" width="1" height="1" fill="#1B34C9"/>
<rect x="13" y="21" width="1" height="1" fill="#F1F4FF"/>
<rect x="14" y="21" width="1" height="1" fill="#1B34C9"/>
<rect x="15" y="21" width="2" height="1" fill="#F1F4FF"/>
<rect x="17" y="21" width="8" height="1" fill="#1B34C9"/>
<rect x="25" y="21" width="3" height="1" fill="#F1F4FF"/>
<rect x="28" y="21" width="1" height="1" fill="#14204D"/>
<rect x="10" y="22" width="1" height="1" fill="#14204D"/>
<rect x="11" y="22" width="1" height="1" fill="#F1F4FF"/>
<rect x="12" y="22" width="3" height="1" fill="#1B34C9"/>
<rect x="15" y="22" width="13" height="1" fill="#F1F4FF"/>
<rect x="28" y="22" width="1" height="1" fill="#14204D"/>
<rect x="11" y="23" width="1" height="1" fill="#14204D"/>
<rect x="12" y="23" width="15" height="1" fill="#F1F4FF"/>
<rect x="27" y="23" width="1" height="1" fill="#14204D"/>
<rect x="11" y="24" width="17" height="1" fill="#14204D"/>
<rect x="11" y="25" width="1" height="1" fill="#14204D"/>
<rect x="27" y="25" width="1" height="1" fill="#14204D"/>
<rect x="11" y="26" width="17" height="1" fill="#14204D"/>
<rect x="12" y="27" width="3" height="1" fill="#14204D"/>
<rect x="23" y="27" width="3" height="1" fill="#14204D"/>
<rect x="12" y="28" width="1" height="1" fill="#14204D"/>
<rect x="13" y="28" width="1" height="1" fill="#F1F4FF"/>
<rect x="14" y="28" width="1" height="1" fill="#14204D"/>
<rect x="23" y="28" width="1" height="1" fill="#14204D"/>
<rect x="24" y="28" width="1" height="1" fill="#F1F4FF"/>
<rect x="25" y="28" width="1" height="1" fill="#14204D"/>
<rect x="12" y="29" width="3" height="1" fill="#14204D"/>
<rect x="23" y="29" width="3" height="1" fill="#14204D"/>
</svg>